<?xml version="1.0" encoding="UTF-8" standalone="no"?>
<svg
   preserveAspectRatio="none"
   xmlns:dc="http://purl.org/dc/elements/1.1/"
   xmlns:cc="http://creativecommons.org/ns#"
   xmlns:rdf="http://www.w3.org/1999/02/22-rdf-syntax-ns#"
   xmlns:svg="http://www.w3.org/2000/svg"
   xmlns="http://www.w3.org/2000/svg"
   xmlns:sodipodi="http://sodipodi.sourceforge.net/DTD/sodipodi-0.dtd"
   xmlns:inkscape="http://www.inkscape.org/namespaces/inkscape"
   width="210mm"
   height="297mm"
   viewBox="0 0 210 297"
   version="1.1"
   id="svg8"
   inkscape:version="1.0.1 (3bc2e813f5, 2020-09-07)"
   sodipodi:docname="wedge.svg">
  <defs
     id="defs2" />
  <sodipodi:namedview
     id="base"
     pagecolor="#ffffff"
     bordercolor="#666666"
     borderopacity="1.0"
     inkscape:pageopacity="0.0"
     inkscape:pageshadow="2"
     inkscape:zoom="0.5"
     inkscape:cx="400"
     inkscape:cy="560"
     inkscape:document-units="mm"
     inkscape:current-layer="layer2"
     inkscape:document-rotation="0"
     showgrid="false"
     inkscape:window-width="1158"
     inkscape:window-height="1040"
     inkscape:window-x="734"
     inkscape:window-y="20"
     inkscape:window-maximized="0" />
  <metadata
     id="metadata5">
    <rdf:RDF>
      <cc:Work
         rdf:about="">
        <dc:format>image/svg+xml</dc:format>
        <dc:type
           rdf:resource="http://purl.org/dc/dcmitype/StillImage" />
        <dc:title></dc:title>
      </cc:Work>
    </rdf:RDF>
  </metadata>
  <g
     inkscape:groupmode="layer"
     id="layer2"
     inkscape:label="Layer 2">
    <rect
       style="fill:#c1c5cd;fill-opacity:1;stroke-width:0.264583"
       id="rect860"
       width="210"
       height="297"
       x="0"
       y="0" />
    <path
       style="fill:#e9eef3;fill-opacity:1;stroke-width:2"
       d="M 1.077261,561 1.2987486,0 H 397.14938 793 v 561 561 H 595.40224 397.80448 l -30.7187,-87.0169 c -16.8953,-47.85926 -31.049,-86.68656 -31.45268,-86.28286 -0.53266,0.53264 50.81058,149.54746 58.84924,170.79976 0.75252,1.9895 -39.3406,2.5 -196.34048,2.5 H 0.8557734 Z M 329.7619,929.2381 c -2.86008,-8.50658 -5.54302,-15.12366 -5.96206,-14.7046 -0.41904,0.41904 1.57816,7.72182 4.43826,16.2284 2.86008,8.50658 5.54302,15.12366 5.96206,14.7046 0.41904,-0.41904 -1.57816,-7.72182 -4.43826,-16.2284 z m -12.9972,-37.0028 c -2.31412,-6.85254 -4.55164,-12.11504 -4.97222,-11.69444 -0.42058,0.42058 1.12868,6.37132 3.44282,13.22384 2.31412,6.85254 4.55164,12.11504 4.97222,11.69444 0.42058,-0.42058 -1.12868,-6.37132 -3.44282,-13.22384 z m -11.98692,-34.01308 c -1.23214,-3.53452 -2.59026,-6.0764 -3.01804,-5.64862 -0.42778,0.42776 0.23034,3.66966 1.46248,7.20418 1.23214,3.53452 2.59026,6.0764 3.01804,5.64862 0.42778,-0.42776 -0.23034,-3.66966 -1.46248,-7.20418 z m -13.00854,-36.99146 c -1.77052,-5.19614 -3.56528,-9.1014 -3.98834,-8.67832 -0.42308,0.42308 0.67936,5.02064 2.44986,10.2168 1.77052,5.19614 3.56528,9.1014 3.98834,8.67832 0.42308,-0.42308 -0.67936,-5.02064 -2.44986,-10.2168 z M 279.24414,786.65 c -2.35768,-4.05442 -2.92702,-2.7567 -0.99706,2.27268 0.68588,1.7874 1.66838,2.82852 2.18332,2.31358 0.51494,-0.51494 -0.018,-2.57876 -1.18626,-4.58626 z"
       id="path862"
       transform="scale(0.26458333)" />
  </g>
  <g
     inkscape:label="Layer 1"
     inkscape:groupmode="layer"
     id="layer1">
    <path
       id="rect20"
       style="fill:#0000ff;fill-rule:evenodd;stroke-width:0.597739"
       d="M 0,0 V 297 H 105 Z"
       sodipodi:nodetypes="cccc" />
    <path
       id="path32"
       style="fill:#c1c5cd;fill-rule:evenodd;stroke-width:0.597739;fill-opacity:1"
       d="M 210,0 V 297 H 105 Z"
       sodipodi:nodetypes="cccc" />
    <path
       style="fill:#c1c5cd;fill-opacity:1;stroke-width:0.533109"
       d="M 0.03875671,147.37927 C 0.07636056,2.2092186 0.10614161,-2.1617793 1.0399197,0.4375053 1.5692431,1.9109414 24.923927,68.577226 52.939214,148.5848 80.954508,228.59239 104.12899,294.71618 104.43806,295.52656 L 105,297 H 52.500002 0 Z"
       id="path857" />
  </g>
</svg>
